<?xml version="1.0" encoding="UTF-8"?>
<!DOCTYPE svg PUBLIC "-//W3C//DTD SVG 1.1//EN" "http://www.w3.org/Graphics/SVG/1.1/DTD/svg11.dtd">
<svg xmlns="http://www.w3.org/2000/svg" version="1.1" width="200px" height="133px" style="shape-rendering:geometricPrecision; text-rendering:geometricPrecision; image-rendering:optimizeQuality; fill-rule:evenodd; clip-rule:evenodd" xmlns:xlink="http://www.w3.org/1999/xlink">
<g><path style="opacity:0.6" fill="#88a237" d="M 76.5,36.5 C 81.5402,34.9398 86.2069,35.9398 90.5,39.5C 89.8671,41.7855 88.5338,43.4522 86.5,44.5C 86.5,43.8333 86.5,43.1667 86.5,42.5C 86.4142,41.5041 86.7476,40.6708 87.5,40C 84.3394,37.4559 80.6728,36.2892 76.5,36.5 Z"/></g>
<g><path style="opacity:1" fill="#8a5f36" d="M 70.5,39.5 C 69.8902,40.391 69.5569,41.391 69.5,42.5C 68.609,43.1098 67.609,43.4431 66.5,43.5C 66.1667,43.5 65.8333,43.5 65.5,43.5C 65.1667,40.8333 64.8333,38.1667 64.5,35.5C 68.2407,34.5985 70.2407,35.9319 70.5,39.5 Z"/></g>
<g><path style="opacity:1" fill="#5c8f0f" d="M 75.5,36.5 C 75.2786,37.7348 74.6119,38.7348 73.5,39.5C 74.325,40.3857 75.325,40.719 76.5,40.5C 76.5,41.5 76.5,42.5 76.5,43.5C 79.9023,43.6576 83.2356,43.3242 86.5,42.5C 86.5,43.1667 86.5,43.8333 86.5,44.5C 86.0269,45.9063 85.0269,46.573 83.5,46.5C 78.0937,47.2603 73.427,45.9269 69.5,42.5C 69.5569,41.391 69.8902,40.391 70.5,39.5C 71.922,38.075 73.5887,37.075 75.5,36.5 Z"/></g>
<g><path style="opacity:1" fill="#94b81a" d="M 75.5,36.5 C 75.8333,36.5 76.1667,36.5 76.5,36.5C 80.6728,36.2892 84.3394,37.4559 87.5,40C 86.7476,40.6708 86.4142,41.5041 86.5,42.5C 83.2356,43.3242 79.9023,43.6576 76.5,43.5C 76.5,42.5 76.5,41.5 76.5,40.5C 75.325,40.719 74.325,40.3857 73.5,39.5C 74.6119,38.7348 75.2786,37.7348 75.5,36.5 Z"/></g>
<g><path style="opacity:0.996" fill="#496b1d" d="M 69.5,42.5 C 73.427,45.9269 78.0937,47.2603 83.5,46.5C 80.4344,48.6392 77.1011,48.9725 73.5,47.5C 71.9468,45.615 69.9468,44.615 67.5,44.5C 67.1667,44.5 66.8333,44.5 66.5,44.5C 66.5,44.1667 66.5,43.8333 66.5,43.5C 67.609,43.4431 68.609,43.1098 69.5,42.5 Z"/></g>
<g><path style="opacity:1" fill="#fdfdca" d="M 63.5,47.5 C 61.8712,48.6253 60.3712,49.9586 59,51.5C 58.5357,50.9056 58.369,50.2389 58.5,49.5C 59.5905,46.8083 61.2572,46.1416 63.5,47.5 Z"/></g>
<g><path style="opacity:0.608" fill="#bfcc37" d="M 65.5,43.5 C 65.8333,43.5 66.1667,43.5 66.5,43.5C 66.5,43.8333 66.5,44.1667 66.5,44.5C 64.8008,44.3398 63.1341,44.5065 61.5,45C 62.448,45.4828 63.448,45.6495 64.5,45.5C 64.6716,46.4916 64.3382,47.1583 63.5,47.5C 61.2572,46.1416 59.5905,46.8083 58.5,49.5C 56.4776,51.5313 54.8109,53.8646 53.5,56.5C 51.4451,58.5547 49.1117,60.2213 46.5,61.5C 44.7376,62.2623 43.7376,63.5956 43.5,65.5C 42.8826,65.6107 42.3826,65.944 42,66.5C 41.5026,69.146 41.3359,71.8127 41.5,74.5C 40.5233,71.7131 40.19,68.7131 40.5,65.5C 47.7324,59.0081 54.3991,51.8414 60.5,44C 62.1341,43.5065 63.8008,43.3398 65.5,43.5 Z"/></g>
<g><path style="opacity:1" fill="#fefcc2" d="M 53.5,56.5 C 54.6448,57.7927 54.3115,58.9593 52.5,60C 50.6667,61.1667 48.8333,62.3333 47,63.5C 46.5357,62.9056 46.369,62.2389 46.5,61.5C 49.1117,60.2213 51.4451,58.5547 53.5,56.5 Z"/></g>
<g><path style="opacity:0.939" fill="#3c3c3c" d="M 86.5,57.5 C 90.1817,57.3347 93.8484,57.5014 97.5,58C 102.823,65.4258 100.823,69.2592 91.5,69.5C 91.5,70.8333 91.5,72.1667 91.5,73.5C 89.8333,73.5 88.1667,73.5 86.5,73.5C 86.5,68.1667 86.5,62.8333 86.5,57.5 Z M 91.5,61.5 C 96.1158,62.0407 96.4491,63.374 92.5,65.5C 91.5713,64.3112 91.238,62.9778 91.5,61.5 Z"/></g>
<g><path style="opacity:0.893" fill="#404040" d="M 106.5,63.5 C 104.952,63.1788 104.285,62.1788 104.5,60.5C 107.247,60.8134 109.914,60.48 112.5,59.5C 109.232,58.513 105.898,58.1796 102.5,58.5C 102.5,63.1667 102.5,67.8333 102.5,72.5C 106.167,72.5 109.833,72.5 113.5,72.5C 113.5,71.5 113.5,70.5 113.5,69.5C 114.376,69.6309 115.043,69.2975 115.5,68.5C 117.311,65.0453 118.978,61.5453 120.5,58C 122.167,57.3333 123.833,57.3333 125.5,58C 128.214,62.9213 130.214,68.088 131.5,73.5C 127.888,71.568 123.888,70.568 119.5,70.5C 119.5,71.5 119.5,72.5 119.5,73.5C 113.5,73.5 107.5,73.5 101.5,73.5C 101.5,68.1667 101.5,62.8333 101.5,57.5C 105.833,57.5 110.167,57.5 114.5,57.5C 114.5,58.8333 114.5,60.1667 114.5,61.5C 111.302,60.9644 108.635,61.631 106.5,63.5 Z M 122.5,63.5 C 125.377,65.8455 125.044,66.6789 121.5,66C 122.252,65.3292 122.586,64.4959 122.5,63.5 Z"/></g>
<g><path style="opacity:0.907" fill="#393939" d="M 106.5,63.5 C 108.833,63.5 111.167,63.5 113.5,63.5C 113.5,64.8333 113.5,66.1667 113.5,67.5C 104.167,68.1667 104.167,68.8333 113.5,69.5C 113.5,70.5 113.5,71.5 113.5,72.5C 109.833,72.5 106.167,72.5 102.5,72.5C 102.5,67.8333 102.5,63.1667 102.5,58.5C 105.898,58.1796 109.232,58.513 112.5,59.5C 109.914,60.48 107.247,60.8134 104.5,60.5C 104.285,62.1788 104.952,63.1788 106.5,63.5 Z"/></g>
<g><path style="opacity:0.94" fill="#3d3d3d" d="M 132.5,57.5 C 136.182,57.3347 139.848,57.5014 143.5,58C 144.416,58.3742 145.25,58.8742 146,59.5C 146.978,62.6693 146.478,65.5027 144.5,68C 145.376,69.586 146.376,71.086 147.5,72.5C 146.5,72.8333 145.5,73.1667 144.5,73.5C 142.124,72.7744 140.124,71.4411 138.5,69.5C 137.571,70.6888 137.238,72.0222 137.5,73.5C 135.833,73.5 134.167,73.5 132.5,73.5C 132.5,68.1667 132.5,62.8333 132.5,57.5 Z M 137.5,61.5 C 138.833,61.5 140.167,61.5 141.5,61.5C 141.5,62.5 141.5,63.5 141.5,64.5C 140.167,64.5 138.833,64.5 137.5,64.5C 137.5,63.5 137.5,62.5 137.5,61.5 Z"/></g>
<g><path style="opacity:1" fill="#aec50a" d="M 67.5,44.5 C 69.9468,44.615 71.9468,45.615 73.5,47.5C 73.5,47.8333 73.5,48.1667 73.5,48.5C 73.8076,50.924 73.4742,53.2573 72.5,55.5C 71.7022,53.9223 71.2022,52.2556 71,50.5C 70.9694,59.9396 67.4694,67.7729 60.5,74C 58.3716,74.6552 56.3716,75.4886 54.5,76.5C 55.8333,74.8333 57.1667,73.1667 58.5,71.5C 61.08,67.07 63.9133,62.7366 67,58.5C 69.5515,53.7224 69.7182,49.0557 67.5,44.5 Z"/></g>
<g><path style="opacity:1" fill="#cfdd0e" d="M 66.5,44.5 C 66.8333,44.5 67.1667,44.5 67.5,44.5C 69.7182,49.0557 69.5515,53.7224 67,58.5C 63.9133,62.7366 61.08,67.07 58.5,71.5C 56.8828,72.038 55.2161,72.3713 53.5,72.5C 57.7532,66.2764 61.9198,59.943 66,53.5C 66.1667,52.1667 66.3333,50.8333 66.5,49.5C 66.4146,47.6672 65.7479,46.3339 64.5,45.5C 63.448,45.6495 62.448,45.4828 61.5,45C 63.1341,44.5065 64.8008,44.3398 66.5,44.5 Z"/></g>
<g><path style="opacity:1" fill="#f0ef1c" d="M 64.5,45.5 C 65.7479,46.3339 66.4146,47.6672 66.5,49.5C 66.3333,50.8333 66.1667,52.1667 66,53.5C 61.9198,59.943 57.7532,66.2764 53.5,72.5C 47.1976,74.037 43.8642,71.7037 43.5,65.5C 43.7376,63.5956 44.7376,62.2623 46.5,61.5C 46.369,62.2389 46.5357,62.9056 47,63.5C 48.8333,62.3333 50.6667,61.1667 52.5,60C 54.3115,58.9593 54.6448,57.7927 53.5,56.5C 54.8109,53.8646 56.4776,51.5313 58.5,49.5C 58.369,50.2389 58.5357,50.9056 59,51.5C 60.3712,49.9586 61.8712,48.6253 63.5,47.5C 64.3382,47.1583 64.6716,46.4916 64.5,45.5 Z"/></g>
<g><path style="opacity:1" fill="#c9c605" d="M 43.5,65.5 C 43.8642,71.7037 47.1976,74.037 53.5,72.5C 55.2161,72.3713 56.8828,72.038 58.5,71.5C 57.1667,73.1667 55.8333,74.8333 54.5,76.5C 50.5,76.5 46.5,76.5 42.5,76.5C 42.1667,75.8333 41.8333,75.1667 41.5,74.5C 41.3359,71.8127 41.5026,69.146 42,66.5C 42.3826,65.944 42.8826,65.6107 43.5,65.5 Z"/></g>
<g><path style="opacity:1" fill="#659305" d="M 75.5,58.5 C 76.1667,61.5 76.8333,64.5 77.5,67.5C 78.4361,74.035 76.4361,79.3684 71.5,83.5C 71.1667,83.1667 70.8333,82.8333 70.5,82.5C 72.6227,80.2546 73.6227,77.5879 73.5,74.5C 72.0222,74.238 70.6888,74.5713 69.5,75.5C 64.2612,82.9114 57.2612,85.5781 48.5,83.5C 51.7935,83.741 54.7935,82.9076 57.5,81C 60.6634,78.798 63.4967,76.298 66,73.5C 66.4828,72.552 66.6495,71.552 66.5,70.5C 68.5922,70.4386 70.0922,69.4386 71,67.5C 71.3333,64.8333 71.6667,62.1667 72,59.5C 73.7091,65.7061 74.8757,65.3728 75.5,58.5 Z"/></g>
<g><path style="opacity:0.824" fill="#889627" d="M 40.5,65.5 C 40.19,68.7131 40.5233,71.7131 41.5,74.5C 41.8333,75.1667 42.1667,75.8333 42.5,76.5C 43.1667,78.1667 43.8333,79.8333 44.5,81.5C 43.609,80.8902 42.609,80.5569 41.5,80.5C 38.1635,75.5566 37.8302,70.5566 40.5,65.5 Z"/></g>
<g><path style="opacity:1" fill="#85a606" d="M 73.5,48.5 C 74.5808,51.6267 75.2474,54.9601 75.5,58.5C 74.8757,65.3728 73.7091,65.7061 72,59.5C 71.6667,62.1667 71.3333,64.8333 71,67.5C 70.0922,69.4386 68.5922,70.4386 66.5,70.5C 66.6495,71.552 66.4828,72.552 66,73.5C 63.4967,76.298 60.6634,78.798 57.5,81C 54.7935,82.9076 51.7935,83.741 48.5,83.5C 46.9382,83.2671 45.6049,82.6005 44.5,81.5C 43.8333,79.8333 43.1667,78.1667 42.5,76.5C 46.5,76.5 50.5,76.5 54.5,76.5C 56.3716,75.4886 58.3716,74.6552 60.5,74C 67.4694,67.7729 70.9694,59.9396 71,50.5C 71.2022,52.2556 71.7022,53.9223 72.5,55.5C 73.4742,53.2573 73.8076,50.924 73.5,48.5 Z"/></g>
<g><path style="opacity:1" fill="#3c6809" d="M 77.5,67.5 C 79.9704,74.6321 78.3038,80.6321 72.5,85.5C 72.44,84.9569 72.1067,84.6236 71.5,84.5C 68.293,87.0142 64.6264,88.3476 60.5,88.5C 57.1833,87.9469 53.85,87.6135 50.5,87.5C 46.6367,86.3064 43.6367,83.973 41.5,80.5C 42.609,80.5569 43.609,80.8902 44.5,81.5C 45.6049,82.6005 46.9382,83.2671 48.5,83.5C 57.2612,85.5781 64.2612,82.9114 69.5,75.5C 70.6888,74.5713 72.0222,74.238 73.5,74.5C 73.6227,77.5879 72.6227,80.2546 70.5,82.5C 70.8333,82.8333 71.1667,83.1667 71.5,83.5C 76.4361,79.3684 78.4361,74.035 77.5,67.5 Z"/></g>
<g><path style="opacity:0.582" fill="#2d4a13" d="M 72.5,85.5 C 65.5599,91.0257 58.2266,91.6924 50.5,87.5C 53.85,87.6135 57.1833,87.9469 60.5,88.5C 64.6264,88.3476 68.293,87.0142 71.5,84.5C 72.1067,84.6236 72.44,84.9569 72.5,85.5 Z"/></g>
</svg>
